<svg version="1.1" id="Layer_1" xmlns="http://www.w3.org/2000/svg" xmlns:xlink="http://www.w3.org/1999/xlink" x="0px" y="0px"
	 width="100%" viewBox="0 0 64 64" enable-background="new 0 0 64 64" xml:space="preserve">
<path fill="#000000" opacity="1.000000" stroke="none" 
	d="
M45.000957,65.000000 
	C30.000774,65.000000 15.500795,65.000000 1.000611,65.000000 
	C1.000407,43.666969 1.000407,22.333935 1.000204,1.000677 
	C22.333002,1.000451 43.666004,1.000451 64.999252,1.000226 
	C64.999504,22.332975 64.999504,43.665951 64.999756,64.999466 
	C58.500385,65.000000 52.000774,65.000000 45.000957,65.000000 
M49.980263,30.046335 
	C49.986675,25.407244 49.932934,20.767033 50.019264,16.129429 
	C50.083870,12.658840 48.628681,10.967377 45.038250,10.964261 
	C41.497227,10.961188 39.908108,12.521557 39.980152,16.053257 
	C40.066605,20.291248 40.000584,24.532349 40.000584,28.697247 
	C34.972969,28.697247 30.581198,28.697247 25.834093,28.697247 
	C25.834093,25.927982 25.834093,23.460186 25.982330,20.124392 
	C25.988197,18.796104 25.952959,17.466116 26.007915,16.139862 
	C26.151932,12.664334 24.635374,10.965867 21.034117,10.962997 
	C17.476814,10.960162 15.909523,12.542907 15.981653,16.072248 
	C16.103708,22.044395 16.110586,28.018898 16.020069,34.920170 
	C16.013538,40.231617 16.065548,45.544010 15.979655,50.854176 
	C15.923504,54.325535 17.357470,56.032486 20.960663,56.035938 
	C24.513220,56.039337 26.097210,54.464302 26.019220,50.932465 
	C25.932888,47.022812 25.999489,43.109783 25.999489,39.342995 
	C31.050737,39.342995 35.436001,39.342995 39.593781,39.342995 
	C39.995182,44.422112 40.368309,49.143471 41.041477,54.492905 
	C43.315220,54.852722 45.857216,55.972710 47.766251,55.299026 
	C48.992527,54.866287 49.834629,51.811829 49.898991,49.900536 
	C50.111217,43.597725 49.891048,37.280350 49.980263,30.046335 
z"/>
<path fill="#37D0EE" opacity="1.000000" stroke="none" 
	d="
M40.741436,53.864830 
	C40.368309,49.143471 39.995182,44.422112 39.593781,39.342995 
	C35.436001,39.342995 31.050737,39.342995 25.999489,39.342995 
	C25.999489,43.109783 25.932888,47.022812 26.019220,50.932465 
	C26.097210,54.464302 24.513220,56.039337 20.960663,56.035938 
	C17.357470,56.032486 15.923504,54.325535 15.979655,50.854176 
	C16.065548,45.544010 16.013538,40.231617 16.436119,34.387894 
	C23.213261,30.031794 20.801996,24.307608 20.038141,18.883568 
	C22.007631,19.600155 23.920862,20.296272 25.834093,20.992390 
	C25.834093,23.460186 25.834093,25.927982 25.834093,28.697247 
	C30.581198,28.697247 34.972969,28.697247 40.000584,28.697247 
	C40.000584,24.532349 40.066605,20.291248 39.980152,16.053257 
	C39.908108,12.521557 41.497227,10.961188 45.038250,10.964261 
	C48.628681,10.967377 50.083870,12.658840 50.019264,16.129429 
	C49.932934,20.767033 49.986675,25.407244 49.534111,30.540939 
	C45.056042,31.664944 45.015324,34.676174 44.987129,37.778126 
	C44.935215,43.490288 46.455521,49.639660 40.741436,53.864830 
z"/>
<path fill="#72DEF3" opacity="1.000000" stroke="none" 
	d="
M25.908211,20.558392 
	C23.920862,20.296272 22.007631,19.600155 20.038141,18.883568 
	C20.801996,24.307608 23.213261,30.031794 16.509029,33.924015 
	C16.110586,28.018898 16.103708,22.044395 15.981653,16.072248 
	C15.909523,12.542907 17.476814,10.960162 21.034117,10.962997 
	C24.635374,10.965867 26.151932,12.664334 26.007915,16.139862 
	C25.952959,17.466116 25.988197,18.796104 25.908211,20.558392 
z"/>
<path fill="#2FB1CB" opacity="1.000000" stroke="none" 
	d="
M40.891457,54.178867 
	C46.455521,49.639660 44.935215,43.490288 44.987129,37.778126 
	C45.015324,34.676174 45.056042,31.664944 49.462433,31.002056 
	C49.891048,37.280350 50.111217,43.597725 49.898991,49.900536 
	C49.834629,51.811829 48.992527,54.866287 47.766251,55.299026 
	C45.857216,55.972710 43.315220,54.852722 40.891457,54.178867 
z"/>
</svg>