<svg version="1.0" xmlns="http://www.w3.org/2000/svg" width="300.000000pt" height="300.000000pt" viewBox="-3 -3 306 306" preserveAspectRatio="xMidYMid meet" transform="matrix(1, 0, 0, -1, 0, 0)"><g id="deeditor_bgCarrier" stroke-width="0">
  <rect id="dee_c_e" x="-3" y="-3" width="306" height="306" rx="38.4" fill="#000000" strokewidth="0"/>
</g>
<metadata fill="#26d4c8">
Created by potrace 1.10, written by Peter Selinger 2001-2011
</metadata>
<g transform="translate(0.000000,300.000000) scale(0.100000,-0.100000)" fill="#26d4c8" stroke="none">
<path d="M790 2571 c-77 -24 -157 -99 -178 -168 -8 -28 -12 -279 -12 -907 0 -822 1 -870 18 -910 45 -99 131 -156 239 -156 35 0 79 6 97 14 47 19 113 82 139 130 21 39 22 54 25 370 l3 329 -23 -6 c-34 -9 -155 21 -236 59 -88 42 -178 126 -216 203 -25 48 -28 65 -29 172 l-2 119 29 -31 c56 -60 92 -69 279 -69 116 0 177 -4 200 -13 45 -19 721 -18 754 1 12 6 42 12 66 12 175 0 335 -98 410 -249 29 -60 32 -72 30 -151 -1 -47 1 -101 6 -120 5 -21 9 206 10 570 l1 605 -24 50 c-50 104 -121 150 -236 150 -89 0 -139 -22 -192 -85 -63 -73 -68 -104 -68 -456 l0 -314 -385 0 -385 0 0 321 c0 223 -4 334 -12 363 -16 55 -109 148 -164 164 -46 13 -105 14 -144 3z m152 -46 c42 -17 91 -64 116 -109 15 -27 17 -70 20 -339 2 -237 0 -312 -10 -324 -10 -12 -38 -14 -168 -12 -173 4 -204 14 -247 77 -20 31 -21 44 -22 274 -1 146 3 257 10 282 36 133 176 204 301 151z m1295 0 c41 -20 76 -54 107 -103 l26 -42 0 -437 0 -438 -58 61 c-103 111 -187 154 -337 172 l-60 7 -1 295 c-1 162 3 314 8 336 11 48 55 105 107 139 29 19 50 24 107 24 44 1 82 -5 101 -14z m-1447 -1174 c62 -42 138 -74 220 -92 30 -6 61 -16 68 -22 17 -14 17 -584 0 -618 -41 -78 -97 -134 -148 -149 -114 -33 -229 18 -278 123 -20 42 -21 63 -21 455 -1 226 2 418 5 426 4 12 17 3 52 -35 26 -28 71 -68 102 -88z" fill="#26d4c8"/>
<path d="M1137 1283 c-4 -3 -7 -10 -7 -15 0 -4 167 -8 370 -8 336 0 405 5 354 24 -21 8 -709 8 -717 -1z" fill="#26d4c8"/>
<path d="M1882 940 c3 -314 4 -326 25 -367 49 -91 134 -143 236 -143 115 0 211 69 242 174 11 38 15 108 15 291 l0 242 -29 40 c-51 71 -88 81 -304 85 l-188 3 3 -325z m386 284 c20 -8 49 -29 65 -45 l27 -30 1 -197 c1 -294 -1 -323 -21 -368 -30 -68 -120 -124 -202 -124 -49 0 -110 27 -156 70 -59 56 -62 72 -64 394 -1 160 1 297 5 304 13 19 296 17 345 -4z" fill="#26d4c8"/>
</g>
</svg>