<svg width="354" height="472" viewBox="0 0 354 472" fill="none" xmlns="http://www.w3.org/2000/svg">
<path d="M18 462V261L27 264.5V266.182L36 271.364V271L45 276V276.545L57.6 283.8L63 286.5V286.909L78.9231 296.077L81 297V297.273L94.1538 304.846L99 307V307.636L117 318V408H108V314L117 318L99 307.636V419H90V303L94.1538 304.846L81 297.273V430H72V293L78.9231 296.077L63 286.909V441H54V282L57.6 283.8L45 276.545V451H36V271.364L27 266.182V462H18Z" fill="#D9D9D9"/>
<path d="M18 259V261L27 264.5V259H18Z" fill="#D9D9D9" fill-opacity="0.2"/>
<path d="M36 259V271L45 276V259H36Z" fill="#D9D9D9" fill-opacity="0.2"/>
<path d="M63 286.5L54 282V259H63V286.5Z" fill="#D9D9D9" fill-opacity="0.2"/>
<path d="M72 259V293L81 297V259H72Z" fill="#D9D9D9" fill-opacity="0.2"/>
<path d="M90 259V303L99 307V259H90Z" fill="#D9D9D9" fill-opacity="0.2"/>
<path d="M108 259V314L117 318V259H108Z" fill="#D9D9D9" fill-opacity="0.2"/>
<path d="M9 63.5L0 64.5V472H9V259H236V472H244.5V65.5H236V66V185.5H117V0L109 1V194.5H236V197H99V10L90.5 11.5V205.5H236V208.5L81 207.5V21.5L73 23.5V216.5H236V218.5H63V32.5L54 33.5L54.5 226L236 227V228.5H45L44.5 42.5L36 43.5V237L236 237.5V239H27V53L17.5 54.5L18 248H236V250L9 249.5V63.5Z" fill="#D9D9D9"/>
<path d="M263 59L254 60L254.5 467.5L263 466V59Z" fill="#D9D9D9"/>
<path d="M281 48L272 50V456.5L281 455.5V48Z" fill="#D9D9D9"/>
<path d="M291 447V39L299.5 37.5V445L291 447Z" fill="#D9D9D9"/>
<path d="M308 437V29L317.5 27V435L308 437Z" fill="#D9D9D9"/>
<path d="M326.5 425L327 17L335.5 15.5V424L326.5 425Z" fill="#D9D9D9"/>
<path d="M344.5 413V6L354 5V412L344.5 413Z" fill="#D9D9D9"/>
</svg>
